<?xml version="1.0" encoding="iso-8859-1"?>
<!-- Generator: Adobe Illustrator 19.0.0, SVG Export Plug-In . SVG Version: 6.00 Build 0)  -->
<svg version="1.1" id="Capa_1" xmlns="http://www.w3.org/2000/svg" xmlns:xlink="http://www.w3.org/1999/xlink" x="0px" y="0px"
	 viewBox="0 0 512.007 512.007" style="enable-background:new 0 0 512.007 512.007;" xml:space="preserve">
<circle style="fill:#DE4DB5;" cx="256.003" cy="256.003" r="256.003"/>
<path style="fill:#B32B8C;" d="M395.25,116.401l-0.002,0.002C359.58,80.823,310.36,58.825,256,58.825
	C147.103,58.825,58.824,147.103,58.824,256c0,54.359,22,103.579,57.579,139.248l-0.002,0.002l115.624,115.624
	c7.895,0.734,15.888,1.126,23.976,1.126c141.385,0,256-114.615,256-256c0-8.086-0.393-16.081-1.126-23.976L395.25,116.401z"/>
<g>
	<path style="fill:#FFFFFF;" d="M256,78.542c47.401,0,91.965,18.459,125.482,51.977c33.517,33.517,51.977,78.081,51.977,125.482
		S415,347.965,381.482,381.482C347.965,415,303.402,433.459,256,433.459S164.036,415,130.519,381.482
		C97.001,347.965,78.542,303.402,78.542,256s18.459-91.965,51.977-125.482C164.036,97.001,208.599,78.542,256,78.542 M256,58.825
		C147.103,58.825,58.824,147.103,58.824,256S147.103,453.176,256,453.176S453.176,364.898,453.176,256S364.898,58.825,256,58.825
		L256,58.825z"/>
	<path style="fill:#FFFFFF;" d="M181.75,368.115h-24.605c-12.939,0-23.427-10.489-23.427-23.427l0,0
		c0-12.939,10.489-23.427,23.427-23.427h24.605c12.939,0,23.427,10.489,23.427,23.427l0,0
		C205.177,357.626,194.689,368.115,181.75,368.115z"/>
	<rect x="186.065" y="164.8" style="fill:#FFFFFF;" width="19.112" height="179.894"/>
	<path style="fill:#FFFFFF;" d="M303.833,347.205h-24.605c-12.939,0-23.427-10.489-23.427-23.427l0,0
		c0-12.939,10.489-23.427,23.427-23.427h24.605c12.939,0,23.427,10.489,23.427,23.427l0,0
		C327.261,336.715,316.772,347.205,303.833,347.205z"/>
	<polygon style="fill:#FFFFFF;" points="308.149,146.863 327.261,143.885 327.261,323.777 308.149,323.777 	"/>
	<polygon style="fill:#FFFFFF;" points="327.261,187.156 186.065,208.067 186.065,164.796 327.261,143.885 	"/>
</g>
<g>
</g>
<g>
</g>
<g>
</g>
<g>
</g>
<g>
</g>
<g>
</g>
<g>
</g>
<g>
</g>
<g>
</g>
<g>
</g>
<g>
</g>
<g>
</g>
<g>
</g>
<g>
</g>
<g>
</g>
</svg>
